<mxfile host="app.diagrams.net" agent="Mozilla/5.0 (X11; Linux x86_64) AppleWebKit/537.36 (KHTML, like Gecko) Chrome/126.0.0.0 Safari/537.36" version="24.7.6">
  <diagram name="Page-1" id="jb8CDvazWiX26ZE2VR0U">
    <mxGraphModel dx="2045" dy="683" grid="1" gridSize="10" guides="1" tooltips="1" connect="1" arrows="1" fold="1" page="1" pageScale="1" pageWidth="850" pageHeight="1100" math="0" shadow="0">
      <root>
        <mxCell id="0" />
        <mxCell id="1" parent="0" />
        <mxCell id="J9t8lohRSPXTtnpNfba2-1" value="&lt;font size=&quot;1&quot;&gt;&lt;b style=&quot;font-size: 13px;&quot;&gt;Scan the soil material&lt;/b&gt;&lt;/font&gt;" style="html=1;shadow=0;dashed=0;align=center;verticalAlign=middle;shape=mxgraph.arrows2.arrow;dy=0;dx=10;notch=0;fillColor=#838799;strokeColor=none;fillStyle=solid;fontColor=#FFFFFF;" vertex="1" parent="1">
          <mxGeometry x="-199" y="350" width="150" height="90" as="geometry" />
        </mxCell>
        <mxCell id="J9t8lohRSPXTtnpNfba2-2" value="&lt;font style=&quot;font-size: 13px;&quot;&gt;&lt;b&gt;Load spectral and&amp;nbsp;&lt;/b&gt;&lt;/font&gt;&lt;div style=&quot;font-size: 13px;&quot;&gt;&lt;font style=&quot;font-size: 13px;&quot;&gt;&lt;b&gt;physical-chemical&amp;nbsp;&lt;/b&gt;&lt;/font&gt;&lt;/div&gt;&lt;div style=&quot;font-size: 13px;&quot;&gt;&lt;font style=&quot;font-size: 13px;&quot;&gt;&lt;b&gt;data into&amp;nbsp;&lt;span style=&quot;background-color: initial;&quot;&gt;the&amp;nbsp;&lt;/span&gt;&lt;/b&gt;&lt;/font&gt;&lt;/div&gt;&lt;div style=&quot;font-size: 13px;&quot;&gt;&lt;span style=&quot;background-color: initial;&quot;&gt;&lt;font style=&quot;font-size: 13px;&quot;&gt;&lt;b&gt;analytics software&lt;/b&gt;&lt;/font&gt;&lt;/span&gt;&lt;/div&gt;" style="html=1;shadow=0;dashed=0;align=center;verticalAlign=middle;shape=mxgraph.arrows2.arrow;dy=0;dx=10;notch=10;strokeColor=none;fillColor=#514741;fontColor=#FFFFFF;" vertex="1" parent="1">
          <mxGeometry x="-49" y="350" width="150" height="90" as="geometry" />
        </mxCell>
        <mxCell id="J9t8lohRSPXTtnpNfba2-3" value="&lt;font style=&quot;font-size: 13px;&quot;&gt;&lt;b&gt;Spectra&amp;nbsp;&lt;/b&gt;&lt;/font&gt;&lt;div style=&quot;font-size: 13px;&quot;&gt;&lt;font style=&quot;font-size: 13px;&quot;&gt;&lt;b&gt;pre-processing&lt;/b&gt;&lt;/font&gt;&lt;/div&gt;" style="html=1;shadow=0;dashed=0;align=center;verticalAlign=middle;shape=mxgraph.arrows2.arrow;dy=0;dx=10;notch=10;strokeColor=none;fillColor=#CC6600;fontColor=#FFFFFF;" vertex="1" parent="1">
          <mxGeometry x="101" y="350" width="150" height="90" as="geometry" />
        </mxCell>
        <mxCell id="J9t8lohRSPXTtnpNfba2-4" value="&lt;font style=&quot;font-size: 13px;&quot;&gt;&lt;b style=&quot;&quot;&gt;Visualization&amp;nbsp;&lt;span style=&quot;background-color: initial;&quot;&gt;and&amp;nbsp;&lt;/span&gt;&lt;/b&gt;&lt;/font&gt;&lt;div style=&quot;font-size: 13px;&quot;&gt;&lt;span style=&quot;background-color: initial;&quot;&gt;&lt;font style=&quot;font-size: 13px;&quot;&gt;&lt;b style=&quot;&quot;&gt;exploratory analyses&lt;/b&gt;&lt;/font&gt;&lt;/span&gt;&lt;/div&gt;" style="html=1;shadow=0;dashed=0;align=center;verticalAlign=middle;shape=mxgraph.arrows2.arrow;dy=0;dx=10;notch=10;strokeColor=none;fillColor=#9F6848;fontColor=#FFFFFF;" vertex="1" parent="1">
          <mxGeometry x="251" y="350" width="150" height="90" as="geometry" />
        </mxCell>
        <mxCell id="J9t8lohRSPXTtnpNfba2-5" value="&lt;div&gt;&lt;br&gt;&lt;/div&gt;" style="html=1;shadow=0;dashed=0;align=center;verticalAlign=middle;shape=mxgraph.arrows2.arrow;dy=0;dx=10;notch=10;strokeColor=none;fillColor=#DDD0C1;fontColor=#080808;" vertex="1" parent="1">
          <mxGeometry x="550" y="350" width="150" height="90" as="geometry" />
        </mxCell>
        <mxCell id="J9t8lohRSPXTtnpNfba2-20" value="" style="shape=table;startSize=0;container=1;collapsible=0;childLayout=tableLayout;strokeColor=none;fillColor=#DDD0C1;fontColor=#080808;" vertex="1" parent="1">
          <mxGeometry x="577" y="351" width="104" height="85" as="geometry" />
        </mxCell>
        <mxCell id="J9t8lohRSPXTtnpNfba2-21" value="" style="shape=tableRow;horizontal=0;startSize=0;swimlaneHead=0;swimlaneBody=0;strokeColor=inherit;top=0;left=0;bottom=0;right=0;collapsible=0;dropTarget=0;fillColor=none;points=[[0,0.5],[1,0.5]];portConstraint=eastwest;fontColor=#080808;" vertex="1" parent="J9t8lohRSPXTtnpNfba2-20">
          <mxGeometry width="104" height="23" as="geometry" />
        </mxCell>
        <mxCell id="J9t8lohRSPXTtnpNfba2-22" value="&lt;b&gt;&lt;font style=&quot;font-size: 13px;&quot;&gt;Modelling&lt;/font&gt;&lt;/b&gt;" style="shape=partialRectangle;html=1;whiteSpace=wrap;connectable=0;strokeColor=inherit;overflow=hidden;fillColor=none;top=0;left=0;bottom=0;right=0;pointerEvents=1;fontColor=#080808;" vertex="1" parent="J9t8lohRSPXTtnpNfba2-21">
          <mxGeometry width="104" height="23" as="geometry">
            <mxRectangle width="104" height="23" as="alternateBounds" />
          </mxGeometry>
        </mxCell>
        <mxCell id="J9t8lohRSPXTtnpNfba2-23" value="" style="shape=tableRow;horizontal=0;startSize=0;swimlaneHead=0;swimlaneBody=0;strokeColor=inherit;top=0;left=0;bottom=0;right=0;collapsible=0;dropTarget=0;fillColor=none;points=[[0,0.5],[1,0.5]];portConstraint=eastwest;fontColor=#080808;" vertex="1" parent="J9t8lohRSPXTtnpNfba2-20">
          <mxGeometry y="23" width="104" height="20" as="geometry" />
        </mxCell>
        <mxCell id="J9t8lohRSPXTtnpNfba2-24" value="&lt;font style=&quot;font-size: 13px;&quot;&gt;Data partitioning&lt;/font&gt;" style="shape=partialRectangle;html=1;whiteSpace=wrap;connectable=0;strokeColor=inherit;overflow=hidden;fillColor=none;top=0;left=0;bottom=0;right=0;pointerEvents=1;align=left;fontColor=#080808;" vertex="1" parent="J9t8lohRSPXTtnpNfba2-23">
          <mxGeometry width="104" height="20" as="geometry">
            <mxRectangle width="104" height="20" as="alternateBounds" />
          </mxGeometry>
        </mxCell>
        <mxCell id="J9t8lohRSPXTtnpNfba2-25" value="" style="shape=tableRow;horizontal=0;startSize=0;swimlaneHead=0;swimlaneBody=0;strokeColor=inherit;top=0;left=0;bottom=0;right=0;collapsible=0;dropTarget=0;fillColor=none;points=[[0,0.5],[1,0.5]];portConstraint=eastwest;fontColor=#080808;" vertex="1" parent="J9t8lohRSPXTtnpNfba2-20">
          <mxGeometry y="43" width="104" height="20" as="geometry" />
        </mxCell>
        <mxCell id="J9t8lohRSPXTtnpNfba2-26" value="&lt;font style=&quot;font-size: 13px;&quot;&gt;Model training&lt;/font&gt;" style="shape=partialRectangle;html=1;whiteSpace=wrap;connectable=0;strokeColor=inherit;overflow=hidden;fillColor=none;top=0;left=0;bottom=0;right=0;pointerEvents=1;align=left;fontColor=#080808;" vertex="1" parent="J9t8lohRSPXTtnpNfba2-25">
          <mxGeometry width="104" height="20" as="geometry">
            <mxRectangle width="104" height="20" as="alternateBounds" />
          </mxGeometry>
        </mxCell>
        <mxCell id="J9t8lohRSPXTtnpNfba2-27" value="" style="shape=tableRow;horizontal=0;startSize=0;swimlaneHead=0;swimlaneBody=0;strokeColor=inherit;top=0;left=0;bottom=0;right=0;collapsible=0;dropTarget=0;fillColor=none;points=[[0,0.5],[1,0.5]];portConstraint=eastwest;fontColor=#080808;" vertex="1" parent="J9t8lohRSPXTtnpNfba2-20">
          <mxGeometry y="63" width="104" height="22" as="geometry" />
        </mxCell>
        <mxCell id="J9t8lohRSPXTtnpNfba2-28" value="Model validation" style="shape=partialRectangle;html=1;whiteSpace=wrap;connectable=0;strokeColor=inherit;overflow=hidden;fillColor=none;top=0;left=0;bottom=0;right=0;pointerEvents=1;align=left;fontColor=#080808;fontSize=13;" vertex="1" parent="J9t8lohRSPXTtnpNfba2-27">
          <mxGeometry width="104" height="22" as="geometry">
            <mxRectangle width="104" height="22" as="alternateBounds" />
          </mxGeometry>
        </mxCell>
        <mxCell id="J9t8lohRSPXTtnpNfba2-29" value="" style="endArrow=none;html=1;rounded=0;exitX=0.047;exitY=0.244;exitDx=0;exitDy=0;exitPerimeter=0;entryX=0.969;entryY=0.247;entryDx=0;entryDy=0;entryPerimeter=0;fontColor=#080808;" edge="1" parent="1" target="J9t8lohRSPXTtnpNfba2-5">
          <mxGeometry width="50" height="50" relative="1" as="geometry">
            <mxPoint x="555.0500000000002" y="371.96000000000004" as="sourcePoint" />
            <mxPoint x="690" y="372" as="targetPoint" />
          </mxGeometry>
        </mxCell>
        <mxCell id="J9t8lohRSPXTtnpNfba2-30" value="&lt;b&gt;&lt;font style=&quot;font-size: 13px;&quot;&gt;Interpretation&lt;/font&gt;&lt;/b&gt;" style="html=1;shadow=0;dashed=0;align=center;verticalAlign=middle;shape=mxgraph.arrows2.arrow;dy=0;dx=10;notch=10;strokeColor=none;fillColor=#B9E0A5;fontColor=#080808;" vertex="1" parent="1">
          <mxGeometry x="700" y="348.5" width="150" height="90" as="geometry" />
        </mxCell>
        <mxCell id="J9t8lohRSPXTtnpNfba2-33" value="&lt;span style=&quot;font-size: 13px;&quot;&gt;&lt;b&gt;Calibration set&lt;/b&gt;&lt;/span&gt;&lt;div&gt;&lt;span style=&quot;font-size: 13px;&quot;&gt;&lt;b&gt;sampling&lt;/b&gt;&lt;/span&gt;&lt;/div&gt;" style="html=1;shadow=0;dashed=0;align=center;verticalAlign=middle;shape=mxgraph.arrows2.arrow;dy=0;dx=10;notch=10;strokeColor=none;fillColor=#DEAB7E;fontColor=#FFFFFF;" vertex="1" parent="1">
          <mxGeometry x="400" y="350" width="150" height="90" as="geometry" />
        </mxCell>
      </root>
    </mxGraphModel>
  </diagram>
</mxfile>
